<svg id="Layer_1" enable-background="new 0 0 256 256" height="512" viewBox="0 0 256 256" width="512" xmlns="http://www.w3.org/2000/svg"><g><g><path d="m212.171 200.178v17.8h-47.84c12.09-13.08 18.84-30.04 18.84-48.03 0-26.09-14.35-49.85-37.09-62.25-10.6-5.77-22.26-8.58-33.5-8.58-37.19-.73-71.06 30.26-71.06 70.82v.01c0 8.89 1.65 17.41 4.65 25.25l25.32-.01c-4.56-7.33-7.19-15.98-7.19-25.24 0-26.5 21.58-48.04 48.04-48.04 26.45 0 48.04 21.53 48.04 48.04 0 26.49-21.55 48.03-48.04 48.03h-27.48l14.47 11.39-14.47 11.4h166.17c-26.99-28.19-18.473-19.294-38.86-40.59z" fill="#fc5d3d"/></g><g><g><path d="m180.051 217.978s-20.41 22.79-30.28 22.79h-30.29c25.35 0 44.87-22.79 44.87-22.79z" fill="#d95034"/></g><g><path d="m100.687 190.438-14.297-14.298c-2.924-2.925-2.924-7.666 0-10.59 2.925-2.925 7.666-2.925 10.59 0l8.119 8.119 21.616-21.615c2.924-2.924 7.666-2.924 10.59 0 2.924 2.924 2.924 7.666 0 10.59l-27.793 27.794c-2.436 2.438-6.388 2.438-8.825 0z" fill="#f0c020"/></g><g><path d="m217.986 231.875h-39.188c-1.381 0-2.5-1.119-2.5-2.5s1.119-2.5 2.5-2.5h39.188c1.381 0 2.5 1.119 2.5 2.5s-1.119 2.5-2.5 2.5z" fill="#ffcbc2"/></g></g><g><path d="m241.831 77.178-20.78 30.92-20.77-30.92h9.34c0-21.438-17.147-38.765-38.49-39.07-37.56-.56-53.66 47.13-25.05 69.59-10.605-5.769-22.261-8.58-33.5-8.58-15.28-40.52 14.55-83.89 57.96-83.89 34.265 0 61.95 27.648 61.95 61.95z" fill="#f0c020"/></g><g><path d="m116.852 91.115c-1.183-4.584-1.782-9.279-1.782-13.956 0-30.567 24.885-55.436 55.473-55.436 28.318 0 52.01 21.176 55.109 49.256.151 1.372-.839 2.607-2.211 2.76-1.38.149-2.608-.839-2.76-2.211-2.818-25.543-24.374-44.805-50.139-44.805-27.831 0-50.473 22.625-50.473 50.436 0 4.256.546 8.53 1.624 12.706.345 1.337-.459 2.701-1.796 3.046-1.353.346-2.703-.472-3.045-1.796zm106.639-2.433c-1.381 0-2.5-1.119-2.5-2.5v-4.942c0-1.381 1.119-2.5 2.5-2.5s2.5 1.119 2.5 2.5v4.941c0 1.382-1.119 2.501-2.5 2.501z" fill="#f9e5af"/></g><g><path d="m182.401 64.276-.48-7.517h-21.579l-.48 7.517c-.241 3.771 1.345 7.111 3.918 9.308 1.232 1.052 1.229 2.894-.003 3.947-2.56 2.187-4.157 5.516-3.915 9.305l.48 7.516h21.579l.48-7.516c.241-3.773-1.345-7.112-3.917-9.308-1.232-1.052-1.23-2.894.002-3.946 2.562-2.189 4.157-5.52 3.915-9.306z" fill="#fc5d3d"/></g><g><path d="m98.597 232.479c-1.381 0-2.5-1.119-2.5-2.5s1.119-2.5 2.5-2.5h4.55c41.873-.092 64.47-30.153 64.47-58.391 0-34.874-28.99-56.46-55.85-56.46-14.371-.531-28.808 5.217-39.721 15.741-11.188 10.789-17.35 25.249-17.35 40.719 0 4.54.545 9.063 1.618 13.444.329 1.342-.491 2.695-1.832 3.023-1.345.33-2.695-.492-3.023-1.832-1.17-4.771-1.763-9.695-1.763-14.636 0-16.839 6.704-32.578 18.879-44.317 11.885-11.462 27.656-17.717 43.282-17.141h.006c31.169 0 60.753 25.721 60.753 61.458 0 30.656-24.346 63.291-69.464 63.391h-4.555z" fill="#ffcbc2"/></g><g><path d="m99.331 229.368-14.47 11.4h-24.39l14.47-11.4-14.47-11.39h24.39z" fill="#f0c020"/></g><g><path d="m47.109 229.372-14.47 11.4h-27.67l14.47-11.4-14.47-11.39h27.67z" fill="#13bf6d"/></g><g><path d="m60.469 217.982h-27.83l14.47 11.39-14.47 11.4h27.83l14.47-11.4z" fill="#72c1e8"/></g><g><path d="m98.668 232.479h-24.471c-1.381 0-2.5-1.119-2.5-2.5s1.119-2.5 2.5-2.5h24.471c1.381 0 2.5 1.119 2.5 2.5s-1.119 2.5-2.5 2.5z" fill="#f9e5af"/></g><g><path d="m46.367 232.479h-18.3c-1.381 0-2.5-1.119-2.5-2.5s1.119-2.5 2.5-2.5h18.3c1.381 0 2.5 1.119 2.5 2.5s-1.119 2.5-2.5 2.5z" fill="#76ffba"/></g><g><path d="m74.197 232.479h-27.83c-1.381 0-2.5-1.119-2.5-2.5s1.119-2.5 2.5-2.5h27.83c1.381 0 2.5 1.119 2.5 2.5s-1.119 2.5-2.5 2.5z" fill="#c5e5ff"/></g><g><path d="m184.62 91.852h-.035l.311-4.856c.261-4.078-1.235-7.943-4.118-10.747-.389-.378-.389-1.014 0-1.393 2.881-2.803 4.378-6.662 4.117-10.739l-.311-4.857h.035c1.29 0 2.532-.943 2.565-2.444.03-1.406-1.1-2.556-2.499-2.556h-28.147c-1.366 0-2.642 1.032-2.642 2.5 0 1.381 1.119 2.5 2.5 2.5h1.28l-.311 4.857c-.261 4.078 1.236 7.943 4.119 10.746.389.378.389 1.015 0 1.393-2.881 2.803-4.38 6.663-4.119 10.74l.311 4.856h-1.138c-1.308 0-2.499.941-2.629 2.242-.15 1.497 1.021 2.758 2.487 2.758h28.289c1.599 0 2.847-1.501 2.413-3.171-.286-1.101-1.341-1.829-2.478-1.829zm-7.761-12.423c2.115 1.806 3.225 4.447 3.046 7.248l-.331 5.175h-16.887l-.331-5.175c-.179-2.8.931-5.44 3.044-7.246 2.406-2.055 2.393-5.707.001-7.748-2.114-1.806-3.225-4.447-3.045-7.248l.331-5.176h16.887l.331 5.176c.18 2.8-.93 5.44-3.044 7.245-2.402 2.053-2.397 5.704-.002 7.749z"/><path d="m252.84 239.04-38.86-40.59c-1.542-1.612-4.31-.535-4.31 1.729v15.3h-7.03c-1.37 0-2.49 1.12-2.49 2.5s1.12 2.5 2.49 2.5h9.53c1.361 0 2.5-1.099 2.5-2.5v-11.58l30.5 31.87h-104.055c12.69-5.794 21.703-14.911 24.351-17.79h17.173c1.38 0 2.5-1.12 2.5-2.5 0-1.374-1.117-2.5-2.5-2.5h-12.87c10.043-12.616 15.9-28.493 15.9-45.529 0-26.752-14.615-51.364-38.158-64.319-8.714-6.906-13.522-16.783-13.542-27.841 0-21.222 17.204-38.107 37.12-37.181 19.258.283 34.672 15.263 35.95 34.07h-6.76c-1.995 0-3.181 2.23-2.08 3.89l20.779 30.921c.972 1.458 3.13 1.497 4.15 0l20.78-30.921c1.11-1.675-.09-3.89-2.08-3.89h-6.891c-.6-15.729-6.89-30.64-17.72-41.99-.92-.97-2.57-1.01-3.53-.08-.985.926-1.055 2.491-.1 3.511 0 .01.01.02.01.02 10.57 11.08 16.391 25.65 16.391 41.04 0 1.354 1.1 2.5 2.5 2.5h4.649l-16.09 23.94-16.08-23.94h4.65c1.404 0 2.5-1.149 2.5-2.5 0-22.817-18.254-41.256-40.95-41.57-22.447-.998-42.2 17.925-42.2 42.181-.013 8.025 2.256 15.862 6.97 22.745-6.968-2.379-14.257-3.701-21.58-3.886-2.2-6.357-3.33-12.911-3.33-19.519 0-31.508 25.411-59.4 59.51-59.4 9.7 0 19.319 2.38 27.83 6.87 1.208.64 2.734.19 3.38-1.04.649-1.22.18-2.729-1.04-3.38-9.23-4.87-19.66-7.45-30.17-7.45h-.021c-36.979 0-64.489 30.263-64.489 64.4 0 6.611 1.038 13.163 3.063 19.535-18.331.582-35.432 8.425-48.204 21.045-14.09 13.91-21.859 32.46-21.87 52.24 0 8.989 1.62 17.79 4.82 26.14.47 1.25 1.97 1.93 3.22 1.439 1.29-.489 1.94-1.939 1.45-3.22-2.979-7.78-4.49-15.979-4.49-24.37 0-18.41 7.24-35.689 20.391-48.68 12.649-12.49 29.739-19.66 46.88-19.66 11.951 0 22.91 2.477 33.59 8.29 22.08 12.04 35.79 35.05 35.79 60.061 0 40.586-35.739 68.318-61.188 68.318-.003 0-.006.001-.01.001h-27.396c.065-.051 8.814-6.946 8.814-6.946 1.252-.991 1.266-2.905-.006-3.924-9.302-7.314-7.799-6.133-8.799-6.92h20.259c27.86-.01 50.54-22.67 50.54-50.529 0-27.86-22.68-50.54-50.54-50.54-4.26 0-8.48.529-12.55 1.58-1.35.33-2.146 1.723-1.8 3.039.34 1.311 1.72 2.131 3.04 1.801 3.68-.94 7.489-1.42 11.31-1.42 25.113 0 45.54 20.418 45.54 45.54 0 25.241-20.52 45.529-45.54 45.529-95.725 0-16.478.002-107.371.002-1.381 0-2.5 1.119-2.5 2.5s1.119 2.5 2.5 2.5h26.804l11.295 8.892-11.295 8.898h-26.805c-1.381 0-2.5 1.119-2.5 2.5s1.119 2.5 2.5 2.5c6.841 0 236.773-.002 246.062-.002 2.211 0 3.313-2.662 1.809-4.23zm-168.845-18.561 9.853 7.756 1.441 1.135-11.294 8.899h-16.31l8.8-6.933c1.273-1.001 1.274-2.931.002-3.933l-8.798-6.925h16.306zm-24.392.002 11.294 8.891-11.295 8.899h-19.75l8.804-6.936c1.271-1.001 1.27-2.928-.001-3.929l-8.798-6.926h19.746z"/><path d="m81.08 130.27c-11.652 9.19-19.28 23.5-19.28 39.68 0 9.409 2.62 18.6 7.57 26.56.744 1.198 2.289 1.52 3.439.8 1.167-.715 1.542-2.258.811-3.43 0-.01 0-.01-.011-.01-4.449-7.17-6.81-15.44-6.81-23.92 0-14 6.34-27.04 17.38-35.761 1.08-.85 1.26-2.43.41-3.51-.829-1.049-2.459-1.24-3.509-.409z"/><path d="m92.17 129.13c1.229-.62 1.74-2.12 1.13-3.351-.6-1.21-2.14-1.729-3.36-1.13v.011c-1.243.601-1.727 2.123-1.12 3.34.602 1.231 2.083 1.744 3.35 1.13z"/><path d="m190.14 217.979c0 1.38 1.13 2.5 2.51 2.5 1.37 0 2.49-1.12 2.49-2.5s-1.12-2.5-2.49-2.5c-1.38 0-2.51 1.121-2.51 2.5z"/><path d="m84.622 177.908 14.297 14.298h.001c3.414 3.416 8.944 3.418 12.361 0l27.793-27.794c3.895-3.895 3.895-10.231 0-14.126s-10.232-3.895-14.125 0l-19.849 19.848-6.353-6.352c-3.902-3.904-10.22-3.905-14.125 0-3.893 3.895-3.894 10.232 0 14.126zm3.536-10.591c1.949-1.949 5.105-1.95 7.055 0l8.12 8.119c.977.977 2.559.977 3.535 0l21.616-21.615c1.945-1.943 5.109-1.943 7.055 0 .942.942 1.461 2.195 1.461 3.527 0 1.333-.519 2.586-1.461 3.528l-27.793 27.794c-1.414 1.413-3.879 1.413-5.29 0-.001 0-.001 0-.001 0l-14.298-14.298c-1.944-1.944-1.944-5.109.001-7.055z"/><path d="m206.45 29.75c0 .01.01.01.01.01 1.082.812 2.648.627 3.5-.49.82-1.1.609-2.66-.48-3.489 0-.011 0-.011 0-.011-1.08-.819-2.699-.59-3.51.48-.83 1.1-.62 2.67.48 3.5z"/></g></g></svg>